<svg width="1920" height="1080" viewBox="0 0 1920 1080" fill="none" xmlns="http://www.w3.org/2000/svg">
<rect width="1920" height="1080" fill="white"/>
<path d="M1243.15 349.407C1228.52 349.407 1215.53 346.573 1204.2 340.906C1193.02 335.082 1184.21 327.134 1177.75 317.06C1171.3 306.985 1168.08 295.417 1168.08 282.351C1168.08 269.287 1171.3 257.718 1177.75 247.644C1184.21 237.57 1193.02 229.7 1204.2 224.033C1215.53 218.366 1228.52 215.533 1243.15 215.533C1257.79 215.533 1270.78 218.366 1282.11 224.033C1293.44 229.7 1302.25 237.57 1308.55 247.644C1315 257.718 1318.23 269.287 1318.23 282.351C1318.23 295.417 1315 306.985 1308.55 317.06C1302.25 327.134 1293.44 335.082 1282.11 340.906C1270.78 346.573 1257.79 349.407 1243.15 349.407ZM1243.15 307.851C1247.09 307.851 1250.63 306.908 1253.78 305.019C1256.92 303.13 1259.44 300.296 1261.33 296.518C1263.22 292.583 1264.17 287.861 1264.17 282.351C1264.17 276.685 1263.22 272.042 1261.33 268.421C1259.44 264.643 1256.92 261.81 1253.78 259.921C1250.63 258.032 1247.09 257.089 1243.15 257.089C1239.22 257.089 1235.68 258.032 1232.53 259.921C1229.38 261.81 1226.86 264.643 1224.97 268.421C1223.09 272.042 1222.14 276.685 1222.14 282.351C1222.14 287.861 1223.09 292.583 1224.97 296.518C1226.86 300.296 1229.38 303.13 1232.53 305.019C1235.68 306.908 1239.22 307.851 1243.15 307.851Z" fill="#F96BA4" fill-opacity="0.6"/>
<path d="M1655.49 350.675C1640.86 350.675 1627.87 347.841 1616.54 342.174C1605.36 336.35 1596.54 328.403 1590.1 318.329C1583.64 308.254 1580.42 296.685 1580.42 283.62C1580.42 270.556 1583.64 258.986 1590.1 248.912C1596.54 238.838 1605.36 230.968 1616.54 225.302C1627.87 219.635 1640.86 216.802 1655.49 216.802C1670.13 216.802 1683.12 219.635 1694.45 225.302C1705.78 230.968 1714.6 238.838 1720.89 248.912C1727.35 258.986 1730.58 270.556 1730.58 283.62C1730.58 296.685 1727.35 308.254 1720.89 318.329C1714.6 328.403 1705.78 336.35 1694.45 342.174C1683.12 347.841 1670.13 350.675 1655.49 350.675ZM1655.49 309.12C1659.44 309.12 1662.98 308.176 1666.12 306.287C1669.27 304.398 1671.78 301.564 1673.67 297.786C1675.56 293.851 1676.51 289.129 1676.51 283.62C1676.51 277.953 1675.56 273.31 1673.67 269.689C1671.78 265.912 1669.27 263.079 1666.12 261.19C1662.98 259.301 1659.44 258.357 1655.49 258.357C1651.56 258.357 1648.02 259.301 1644.87 261.19C1641.73 263.079 1639.2 265.912 1637.32 269.689C1635.43 273.31 1634.48 277.953 1634.48 283.62C1634.48 289.129 1635.43 293.851 1637.32 297.786C1639.2 301.564 1641.73 304.398 1644.87 306.287C1648.02 308.176 1651.56 309.12 1655.49 309.12Z" fill="#F96BA4" fill-opacity="0.6"/>
<path d="M1378.32 215.533C1388.24 215.533 1397.21 217.58 1405.24 221.672C1413.26 225.607 1419.57 231.825 1424.12 240.325C1428.84 248.824 1431.2 259.843 1431.2 273.38V347.046H1377.85V282.587C1377.85 274.56 1376.43 268.894 1373.6 265.588C1370.77 262.125 1366.91 260.393 1362.03 260.393C1358.41 260.393 1355.03 261.26 1351.88 262.991C1348.89 264.566 1346.45 267.241 1344.56 271.019C1342.83 274.797 1341.96 279.912 1341.96 286.365V347.046H1288.61V217.894H1339.37V255.672L1329.21 244.811C1334.25 235.052 1341.02 227.732 1349.52 222.852C1358.18 217.973 1367.78 215.533 1378.32 215.533Z" fill="#3EADFB" fill-opacity="0.5"/>
<path d="M746.269 348.138C735.251 348.138 724.391 346.957 713.689 344.596C702.987 342.235 694.329 339.165 687.719 335.388L702.356 300.208C708.495 303.829 715.578 306.662 723.604 308.708C731.79 310.754 739.736 311.778 747.45 311.778C753.902 311.778 758.233 311.226 760.435 310.125C762.796 309.022 763.977 307.527 763.977 305.639C763.977 303.75 762.637 302.412 759.963 301.625C757.288 300.68 753.747 299.972 749.339 299.499C744.93 299.027 740.053 298.477 734.701 297.847C729.506 297.06 724.235 295.958 718.883 294.541C713.53 293.124 708.653 290.999 704.245 288.167C699.837 285.333 696.295 281.556 693.621 276.833C690.946 271.954 689.607 265.815 689.607 258.417C689.607 250.232 692.045 242.834 696.926 236.223C701.962 229.612 709.361 224.339 719.119 220.404C729.034 216.311 741.235 214.265 755.714 214.265C765.157 214.265 774.601 215.13 784.045 216.862C793.488 218.593 801.593 221.269 808.363 224.89L793.724 260.07C787.114 256.449 780.581 254.009 774.128 252.75C767.831 251.334 761.929 250.625 756.422 250.625C749.653 250.625 745.012 251.255 742.492 252.514C740.131 253.773 738.951 255.19 738.951 256.764C738.951 258.653 740.289 260.07 742.964 261.014C745.638 261.959 749.181 262.667 753.588 263.139C757.997 263.612 762.796 264.241 767.99 265.027C773.343 265.658 778.615 266.759 783.809 268.333C789.162 269.75 794.039 271.875 798.446 274.708C802.855 277.542 806.396 281.397 809.071 286.278C811.745 290.999 813.084 297.06 813.084 304.458C813.084 312.171 810.645 319.411 805.766 326.18C800.885 332.791 793.488 338.143 783.573 342.235C773.656 346.171 761.221 348.138 746.269 348.138Z" fill="#BED720" fill-opacity="0.6"/>
<path d="M148 353.556V188.28H203.718V353.556H148Z" fill="#FDD15E"/>
<path d="M472.919 351.019C462.11 351.019 453.127 348.735 445.971 344.168C438.968 339.449 433.791 332.37 430.442 322.932C427.092 313.341 425.417 301.163 425.417 286.396C425.417 271.326 426.94 259.071 429.985 249.633C433.182 240.042 438.283 232.963 445.286 228.396C452.29 223.829 461.501 221.546 472.919 221.546C483.881 221.546 493.93 224.21 503.065 229.538C512.2 234.714 519.508 242.173 524.989 251.916C530.47 261.507 533.21 273 533.21 286.396C533.21 299.793 530.47 311.362 524.989 321.105C519.508 330.696 512.2 338.079 503.065 343.255C493.93 348.431 483.881 351.019 472.919 351.019ZM389.562 393.035V223.829H438.663V240.727L438.892 286.396L441.175 332.066V393.035H389.562ZM460.587 310.83C464.393 310.83 467.819 309.916 470.864 308.089C473.909 306.263 476.345 303.523 478.172 299.869C479.999 296.215 480.913 291.725 480.913 286.396C480.913 280.916 479.999 276.349 478.172 272.696C476.345 269.042 473.909 266.302 470.864 264.475C467.819 262.648 464.393 261.735 460.587 261.735C456.781 261.735 453.355 262.648 450.31 264.475C447.265 266.302 444.829 269.042 443.002 272.696C441.175 276.349 440.262 280.916 440.262 286.396C440.262 291.725 441.175 296.215 443.002 299.869C444.829 303.523 447.265 306.263 450.31 308.089C453.355 309.916 456.781 310.83 460.587 310.83Z" fill="#BED720" fill-opacity="0.6"/>
<path d="M567.238 351.019C557.342 351.019 548.359 349.04 540.29 345.082C532.373 340.972 526.131 334.655 521.563 326.13C516.996 317.452 514.712 306.339 514.712 292.791V223.83H566.325V283.885C566.325 292.715 567.771 298.88 570.664 302.381C573.557 305.883 577.515 307.633 582.539 307.633C585.584 307.633 588.401 306.872 590.989 305.35C593.73 303.675 595.937 301.011 597.612 297.358C599.287 293.552 600.124 288.605 600.124 282.515V223.83H651.737V348.736H602.636V312.657L612.456 322.476C608.041 332.219 601.723 339.45 593.501 344.169C585.432 348.736 576.678 351.019 567.238 351.019Z" fill="#F96BA4" fill-opacity="0.6"/>
<path d="M656 348.735V179.302H707.613V348.735H656Z" fill="#FFB800" fill-opacity="0.6"/>
<path d="M354.957 221.876C364.714 221.876 373.449 223.922 381.163 228.015C389.032 231.95 395.17 238.167 399.578 246.667C404.142 255.168 406.425 266.185 406.425 279.723V353.389H353.068V288.93C353.068 280.902 351.728 275.237 349.054 271.931C346.379 268.468 342.916 266.736 338.667 266.736C335.52 266.736 332.686 267.524 330.167 269.098C327.647 270.671 325.603 273.189 324.029 276.653C322.612 279.959 321.904 284.523 321.904 290.347V353.389H268.546V288.93C268.546 280.902 267.288 275.237 264.769 271.931C262.249 268.468 258.708 266.736 254.144 266.736C250.998 266.736 248.164 267.524 245.645 269.098C243.125 270.671 241.082 273.189 239.507 276.653C238.09 279.959 237.382 284.523 237.382 290.347V353.389H184.024V224.237H234.785V261.306L224.397 250.917C229.277 241.158 235.807 233.917 243.992 229.195C252.178 224.316 261.305 221.876 271.379 221.876C282.712 221.876 292.705 224.867 301.363 230.848C310.177 236.672 316.079 245.959 319.071 258.708L302.78 256.112C307.502 245.408 314.348 237.065 323.32 231.084C332.45 224.945 342.993 221.876 354.957 221.876Z" fill="#3EADFB" fill-opacity="0.5"/>
<path d="M291.053 267.67C291.053 276.743 287.1 279.767 282.226 279.767C277.353 279.767 273.403 276.743 273.403 267.67C273.403 258.597 277.353 255.572 282.226 255.572C287.1 255.572 291.053 257.62 291.053 267.67Z" fill="#666666"/>
<path d="M320.623 267.67C320.623 276.743 316.673 279.767 311.8 279.767C306.925 279.767 302.976 276.743 302.976 267.67C302.976 258.597 306.925 255.572 311.8 255.572C316.673 255.572 320.623 257.62 320.623 267.67Z" fill="#666666"/>
<path d="M858.484 346.87C842.745 346.87 828.973 343.957 817.168 338.133C805.521 332.309 796.47 324.361 790.017 314.286C783.564 304.055 780.338 292.565 780.338 279.814C780.338 266.75 783.486 255.181 789.781 245.107C796.234 235.033 804.969 227.163 815.987 221.496C827.162 215.829 839.676 212.996 853.527 212.996C866.275 212.996 878.001 215.515 888.704 220.552C899.565 225.588 908.222 233.065 914.674 242.982C921.286 252.898 924.591 265.176 924.591 279.814C924.591 281.703 924.512 283.828 924.355 286.189C924.198 288.393 924.04 290.44 923.883 292.329H824.487V266.593H895.552L875.484 273.44C875.484 268.403 874.539 264.153 872.65 260.69C870.919 257.07 868.479 254.315 865.331 252.426C862.184 250.38 858.405 249.357 853.999 249.357C849.591 249.357 845.736 250.38 842.43 252.426C839.283 254.315 836.843 257.07 835.111 260.69C833.381 264.153 832.514 268.403 832.514 273.44V281.467C832.514 286.977 833.616 291.698 835.819 295.634C838.023 299.569 841.171 302.56 845.264 304.606C849.355 306.495 854.314 307.439 860.137 307.439C866.118 307.439 870.998 306.653 874.775 305.078C878.71 303.504 882.802 301.143 887.052 297.995L914.912 326.091C908.615 332.861 900.823 338.054 891.537 341.675C882.409 345.138 871.391 346.87 858.484 346.87Z" fill="#F96BA4" fill-opacity="0.6"/>
<path d="M1708.56 351.272V181.839H1760.18V351.272H1708.56Z" fill="#FFB800" fill-opacity="0.6"/>
<path d="M1112.78 354.926C1099.99 354.926 1088.12 352.947 1077.16 348.989C1066.35 344.879 1056.91 339.094 1048.84 331.635C1040.92 324.176 1034.75 315.346 1030.34 305.147C1025.92 294.947 1023.72 283.682 1023.72 271.351C1023.72 259.021 1025.92 247.756 1030.34 237.556C1034.75 227.357 1040.92 218.527 1048.84 211.068C1056.91 203.608 1066.35 197.9 1077.16 193.942C1088.12 189.831 1099.99 187.776 1112.78 187.776C1128.46 187.776 1142.32 190.517 1154.35 195.997C1166.53 201.477 1176.58 209.393 1184.49 219.745L1150.46 250.115C1145.75 244.178 1140.49 239.611 1134.71 236.414C1129.07 233.065 1122.68 231.391 1115.52 231.391C1109.89 231.391 1104.79 232.304 1100.22 234.131C1095.65 235.958 1091.7 238.622 1088.35 242.123C1085.15 245.624 1082.64 249.887 1080.81 254.91C1078.98 259.782 1078.07 265.262 1078.07 271.351C1078.07 277.441 1078.98 282.997 1080.81 288.021C1082.64 292.892 1085.15 297.079 1088.35 300.58C1091.7 304.081 1095.65 306.745 1100.22 308.572C1104.79 310.399 1109.89 311.312 1115.52 311.312C1122.68 311.312 1129.07 309.714 1134.71 306.517C1140.49 303.168 1145.75 298.525 1150.46 292.588L1184.49 322.958C1176.58 333.157 1166.53 341.073 1154.35 346.706C1142.32 352.186 1128.46 354.926 1112.78 354.926Z" fill="#8BCEFD"/>
<path d="M1510.64 350.004V225.098H1559.74V262.775L1551.75 252.043C1555.55 242.3 1561.64 234.993 1570.02 230.122C1578.39 225.25 1588.44 222.814 1600.16 222.814V268.484C1597.88 268.179 1595.82 267.951 1593.99 267.799C1592.32 267.647 1590.57 267.57 1588.74 267.57C1580.98 267.57 1574.58 269.626 1569.56 273.736C1564.69 277.694 1562.25 284.62 1562.25 294.515V350.004H1510.64Z" fill="#FFB800" fill-opacity="0.6"/>
<path d="M1487.08 346.909C1469.29 346.909 1455.45 342.659 1445.52 334.159C1435.6 325.501 1430.66 312.28 1430.66 294.493V186.355H1484.01V294.021C1484.01 297.956 1485.03 301.025 1487.08 303.229C1489.28 305.432 1491.96 306.535 1495.11 306.535C1499.66 306.535 1503.68 305.353 1507.15 302.993L1519.9 340.062C1515.8 342.423 1510.84 344.155 1505.02 345.256C1499.36 346.358 1493.37 346.909 1487.08 346.909ZM1412.94 261.437V222.48H1510.45V261.437H1412.94Z" fill="#BED720" fill-opacity="0.6"/>
<path d="M1464.32 241.964C1464.32 251.037 1460.37 254.062 1455.5 254.062C1450.63 254.062 1446.67 251.037 1446.67 241.964C1446.67 232.891 1450.63 229.866 1455.5 229.866C1460.37 229.866 1464.32 231.915 1464.32 241.964Z" fill="#666666"/>
<path d="M1493.89 241.964C1493.89 251.037 1489.94 254.062 1485.07 254.062C1480.19 254.062 1476.24 251.037 1476.24 241.964C1476.24 232.891 1480.19 229.866 1485.07 229.866C1489.94 229.866 1493.89 231.915 1493.89 241.964Z" fill="#666666"/>
<ellipse cx="959.844" cy="888.857" rx="297.844" ry="122.981" fill="#FFA9BC" fill-opacity="0.2"/>
<ellipse cx="961.683" cy="882.047" rx="242.835" ry="101.486" fill="#FFA9BC" fill-opacity="0.4"/>
<ellipse cx="959.846" cy="868.667" rx="213.271" ry="88.1057" fill="#FFA9BC" fill-opacity="0.6"/>
<ellipse cx="961.681" cy="855.818" rx="182.016" ry="75.257" fill="#FFA9BC"/>
<path d="M1036.52 553.664C1085.43 553.664 1125.08 593.315 1125.08 642.226C1125.08 675.571 1106.65 704.61 1079.42 719.717C1106.65 734.824 1125.08 763.864 1125.08 797.209C1125.08 846.12 1085.43 885.769 1036.52 885.77H888.915C840.004 885.769 800.355 846.12 800.354 797.209C800.354 763.864 818.784 734.824 846.012 719.717C818.784 704.61 800.355 675.57 800.354 642.226C800.354 593.315 840.004 553.664 888.915 553.664H1036.52Z" fill="#FDD15E" fill-opacity="0.6"/>
<path d="M873.544 627.952C876.822 631.958 885.562 637.567 894.303 627.952" stroke="#666666" stroke-width="7.63889" stroke-linecap="round"/>
<path d="M913.969 627.952C917.246 631.958 925.987 637.567 934.728 627.952" stroke="#666666" stroke-width="7.63889" stroke-linecap="round"/>
<path d="M1029.8 565.699C1074.27 565.699 1110.31 601.746 1110.31 646.21C1110.31 676.524 1093.56 702.923 1068.81 716.656C1093.56 730.39 1110.31 756.79 1110.31 787.104C1110.31 831.568 1074.27 867.613 1029.8 867.613H895.621C851.157 867.613 815.112 831.568 815.112 787.104C815.112 756.79 831.866 730.39 856.619 716.656C831.866 702.923 815.112 676.524 815.112 646.21C815.112 601.746 851.158 565.699 895.622 565.699H1029.8Z" fill="#9CD3F8"/>
<path d="M941.491 480C945.232 483.401 950.47 492.243 941.491 500.405C932.513 508.567 937.751 518.769 941.491 522.85" stroke="#9CD3F8" stroke-width="8" stroke-linecap="round"/>
<path d="M983.177 481.021C986.918 484.421 992.155 493.263 983.177 501.425C974.199 509.587 979.436 519.79 983.177 523.871" stroke="#9CD3F8" stroke-width="8" stroke-linecap="round"/>
<path d="M962.775 481.021C966.516 484.421 971.753 493.263 962.775 501.425C953.797 509.587 959.034 519.79 962.775 523.871" stroke="#9CD3F8" stroke-width="8" stroke-linecap="round"/>
<path d="M882.981 633.726C886.926 638.076 897.444 644.166 907.962 633.726" stroke="#666666" stroke-width="6" stroke-linecap="round"/>
<path d="M931.021 633.726C934.965 638.076 945.483 644.166 956.001 633.726" stroke="#666666" stroke-width="6" stroke-linecap="round"/>
</svg>
