<svg preserveAspectRatio="none" width="100%" height="100%" overflow="visible" style="display: block;" viewBox="0 0 170 170" fill="none" xmlns="http://www.w3.org/2000/svg">
<g id="Group 427322415">
<path id="Vector" d="M51.7391 23.1575C63.7961 -7.71918 106.204 -7.71918 118.261 23.1575C121.304 30.9517 128.422 36.2683 136.552 36.8352C168.706 39.0773 181.885 80.624 157.126 101.898C150.859 107.282 148.142 115.897 150.137 124.053C158.021 156.278 123.638 181.882 96.3208 164.245C89.4108 159.784 80.5892 159.784 73.6792 164.245C46.3619 181.882 11.9794 156.278 19.8626 124.053C21.8578 115.897 19.1412 107.282 12.8745 101.898C-11.8845 80.624 1.29418 39.0773 33.4485 36.8352C41.5782 36.2683 48.6956 30.9517 51.7391 23.1575Z" fill="var(--fill-0, #FDD15E)"/>
<path id="Ellipse 36" d="M114.26 64.3571C114.26 67.8816 112.725 69.0564 110.832 69.0564C108.939 69.0564 107.404 67.8816 107.404 64.3571C107.404 60.8327 108.939 59.6579 110.832 59.6579C112.725 59.6579 114.26 60.4538 114.26 64.3571Z" fill="var(--fill-0, #666666)"/>
<path id="Ellipse 37" d="M129.392 64.3571C129.392 67.8815 127.857 69.0563 125.964 69.0563C124.071 69.0563 122.536 67.8815 122.536 64.3571C122.536 60.8327 124.071 59.6579 125.964 59.6579C127.857 59.6579 129.392 60.4537 129.392 64.3571Z" fill="var(--fill-0, #666666)"/>
</g>
</svg>
